<svg width="750" height="500" viewBox="0 0 750 500" fill="none" xmlns="http://www.w3.org/2000/svg">
<rect width="750" height="500" fill="#F5F5F5"/>
<g clip-path="url(#clip0_0_1)">
<path d="M750 352.5V385H0V365H447.5V360H486.35V355H527.5V352.5H540V355H565V352.5H596.325V350H617.5V347.5H667.5V350.9H687.5V352.5H750Z" fill="#6256D7"/>
<path d="M687.5 370H685V375H687.5V370Z" fill="#0D0787"/>
<path d="M657.5 370H655V375H657.5V370Z" fill="#0D0787"/>
<path d="M627.5 370H625V375H627.5V370Z" fill="#0D0787"/>
<path d="M647.5 370H645V375H647.5V370Z" fill="#0D0787"/>
<path d="M695 367.5H692.5V372.5H695V367.5Z" fill="#0D0787"/>
<path d="M702.5 362.5H700V367.5H702.5V362.5Z" fill="#0D0787"/>
<path d="M705 367.5H702.5V372.5H705V367.5Z" fill="#0D0787"/>
<path d="M670 370H667.5V375H670V370Z" fill="#0D0787"/>
<path d="M672.5 365H670V370H672.5V365Z" fill="#0D0787"/>
<path d="M675 360H672.5V365H675V360Z" fill="#0D0787"/>
<path d="M722.5 370H720V375H722.5V370Z" fill="#0D0787"/>
<path d="M737.5 375H735V377.5H737.5V375Z" fill="#0D0787"/>
<path d="M745 372.5H742.5V375H745V372.5Z" fill="#0D0787"/>
<path d="M535 375H532.5V377.5H535V375Z" fill="#0D0787"/>
<path d="M730 375H727.5V377.5H730V375Z" fill="#0D0787"/>
<path d="M710 370H707.5V372.5H710V370Z" fill="#0D0787"/>
<path d="M690 367.5H687.5V370H690V367.5Z" fill="#0D0787"/>
<path d="M660 367.5H657.5V370H660V367.5Z" fill="#0D0787"/>
<path d="M630 367.5H627.5V370H630V367.5Z" fill="#0D0787"/>
<path d="M645 367.5H642.5V370H645V367.5Z" fill="#0D0787"/>
<path d="M637.5 372.5V367.5H635V370H632.5V375H635V372.5H637.5Z" fill="#0D0787"/>
<path d="M575 372.5V367.5H572.5V370H570V375H572.5V372.5H575Z" fill="#0D0787"/>
<path d="M665 370H662.5V372.5H665V370Z" fill="#0D0787"/>
<path d="M680 370H677.5V372.5H680V370Z" fill="#0D0787"/>
<path d="M542.5 365H540V370H542.5V365Z" fill="#0D0787"/>
<path d="M545 370H542.5V375H545V370Z" fill="#0D0787"/>
<path d="M582.5 367.5H580V372.5H582.5V367.5Z" fill="#0D0787"/>
<path d="M585 372.5H582.5V377.5H585V372.5Z" fill="#0D0787"/>
<path d="M382.5 377.5H380V382.5H382.5V377.5Z" fill="#0D0787"/>
<path d="M367.5 377.5H365V382.5H367.5V377.5Z" fill="#0D0787"/>
<path d="M370 372.5H367.5V377.5H370V372.5Z" fill="#0D0787"/>
<path d="M385 375H382.5V377.5H385V375Z" fill="#0D0787"/>
<path d="M377.5 377.5H375V380H377.5V377.5Z" fill="#0D0787"/>
<path d="M475 375H472.5V380H475V375Z" fill="#0D0787"/>
<path d="M467.5 377.5H465V382.5H467.5V377.5Z" fill="#0D0787"/>
<path d="M485 372.5H482.5V377.5H485V372.5Z" fill="#0D0787"/>
<path d="M460 375H457.5V380H460V375Z" fill="#0D0787"/>
<path d="M462.5 370H460V375H462.5V370Z" fill="#0D0787"/>
<path d="M465 365H462.5V370H465V365Z" fill="#0D0787"/>
<path d="M477.5 372.5H475V375H477.5V372.5Z" fill="#0D0787"/>
<path d="M252.5 377.5H250V382.5H252.5V377.5Z" fill="#0D0787"/>
<path d="M255 375H252.5V377.5H255V375Z" fill="#0D0787"/>
<path d="M455 375H452.5V377.5H455V375Z" fill="#0D0787"/>
<path d="M470 375H467.5V377.5H470V375Z" fill="#0D0787"/>
<path d="M620 372.5H617.5V377.5H620V372.5Z" fill="#0D0787"/>
<path d="M605 372.5H602.5V377.5H605V372.5Z" fill="#0D0787"/>
<path d="M607.5 367.5H605V372.5H607.5V367.5Z" fill="#0D0787"/>
<path d="M610 362.5H607.5V367.5H610V362.5Z" fill="#0D0787"/>
<path d="M622.5 370H620V372.5H622.5V370Z" fill="#0D0787"/>
<path d="M615 372.5H612.5V375H615V372.5Z" fill="#0D0787"/>
<path d="M515 372.5H512.5V377.5H515V372.5Z" fill="#0D0787"/>
<path d="M517.5 370H515V372.5H517.5V370Z" fill="#0D0787"/>
<path d="M525 375V370H522.5V372.5H520V377.5H522.5V375H525Z" fill="#0D0787"/>
<path d="M492.5 375H490V380H492.5V375Z" fill="#0D0787"/>
<path d="M495 370H492.5V375H495V370Z" fill="#0D0787"/>
<path d="M497.5 365H495V370H497.5V365Z" fill="#0D0787"/>
<path d="M510 372.5H507.5V375H510V372.5Z" fill="#0D0787"/>
<path d="M405 375H402.5V380H405V375Z" fill="#0D0787"/>
<path d="M407.5 372.5H405V375H407.5V372.5Z" fill="#0D0787"/>
<path d="M415 377.5V372.5H412.5V375H410V380H412.5V377.5H415Z" fill="#0D0787"/>
<path d="M400 375H397.5V377.5H400V375Z" fill="#0D0787"/>
<path d="M390 377.5H387.5V382.5H390V377.5Z" fill="#0D0787"/>
<path d="M392.5 375H390V377.5H392.5V375Z" fill="#0D0787"/>
<path d="M330 375H327.5V377.5H330V375Z" fill="#0D0787"/>
<path d="M270 380H267.5V382.5H270V380Z" fill="#0D0787"/>
<path d="M335 377.5H332.5V382.5H335V377.5Z" fill="#0D0787"/>
<path d="M337.5 375H335V377.5H337.5V375Z" fill="#0D0787"/>
<path d="M292.5 377.5H290V380H292.5V377.5Z" fill="#0D0787"/>
<path d="M357.5 377.5H355V380H357.5V377.5Z" fill="#0D0787"/>
<path d="M502.5 375H500V377.5H502.5V375Z" fill="#0D0787"/>
<path d="M562.5 375H560V380H562.5V375Z" fill="#0D0787"/>
<path d="M565 370H562.5V375H565V370Z" fill="#0D0787"/>
<path d="M567.5 365H565V370H567.5V365Z" fill="#0D0787"/>
<path d="M532.5 370H530V375H532.5V370Z" fill="#0D0787"/>
<path d="M555 372.5H552.5V377.5H555V372.5Z" fill="#0D0787"/>
<path d="M552.5 367.5H550V372.5H552.5V367.5Z" fill="#0D0787"/>
<path d="M550 362.5H547.5V367.5H550V362.5Z" fill="#0D0787"/>
<path d="M302.5 377.5H300V380H302.5V377.5Z" fill="#0D0787"/>
<path d="M310 367.5H307.5V372.5H310V367.5Z" fill="#0D0787"/>
<path d="M312.5 372.5H310V377.5H312.5V372.5Z" fill="#0D0787"/>
<path d="M300 372.5H297.5V377.5H300V372.5Z" fill="#0D0787"/>
<path d="M322.5 377.5H320V380H322.5V377.5Z" fill="#0D0787"/>
<path d="M320 375H317.5V377.5H320V375Z" fill="#0D0787"/>
<path d="M317.5 370H315V375H317.5V370Z" fill="#0D0787"/>
<path d="M422.5 367.5H420V372.5H422.5V367.5Z" fill="#0D0787"/>
<path d="M425 372.5H422.5V377.5H425V372.5Z" fill="#0D0787"/>
<path d="M445 372.5H442.5V377.5H445V372.5Z" fill="#0D0787"/>
<path d="M447.5 367.5H445V372.5H447.5V367.5Z" fill="#0D0787"/>
<path d="M435 375H432.5V380H435V375Z" fill="#0D0787"/>
<path d="M432.5 370H430V375H432.5V370Z" fill="#0D0787"/>
<path d="M430 365H427.5V370H430V365Z" fill="#0D0787"/>
<path d="M725 367.5H722.5V370H725V367.5Z" fill="#0D0787"/>
<path d="M590 367.5H587.5V372.5H590V367.5Z" fill="#0D0787"/>
<path d="M597.5 372.5H595V375H597.5V372.5Z" fill="#0D0787"/>
<path d="M592.5 365H590V367.5H592.5V365Z" fill="#0D0787"/>
<path d="M350 377.5H347.5V380H350V377.5Z" fill="#0D0787"/>
<path d="M262.5 377.5H260V380H262.5V377.5Z" fill="#0D0787"/>
<path d="M245 380H242.5V382.5H245V380Z" fill="#0D0787"/>
<path d="M742.5 382.5V380V375H740V380V385H735V380V377.5H732.5V380V385H727.5V380V377.5H725V375H722.5V380V385H720V380H717.5V377.5V375H715V377.5V382.5H712.5V377.5V372.5H710V377.5V385H705V380H702.5V377.5V372.5H700V377.5V385H695V380H692.5V372.5H690V380V385H687.5V382.5H685V380V375H682.5V380V385H677.5V377.5V372.5H675V377.5V382.5H672.5V377.5V375H670V377.5V385H667.5V382.5H665V380H662.5V377.5V372.5H660V377.5V385H657.5V382.5H655V380V375H652.5V380V385H650V382.5H645V380V375H642.5V380V382.5H640V380H637.5V375H635V380V382.5H632.5V385H630V380V375H627.5V380V382.5H622.5V385H620V382.5H617.5V380V377.5H615V380V382.5H612.5V380V375H610V380V385H607.5V380V377.5H605V380V382.5H597.5V385H595V377.5V375H592.5V372.5H590V377.5V380H592.5V382.5H587.5V380H585V382.5H582.5V380V377.5H580V380V382.5H577.5V380H575V375H572.5V380V382.5H575V385H567.5V382.5H565V380H562.5V382.5V385H555V382.5H552.5V377.5H550V382.5V385H545V380H542.5V375H540V382.5V385H537.5V382.5H535V380H532.5V377.5H530V380V382.5V385H527.5V382.5H525V380.3V377.5H522.5V380.3V382.5H520V385H517.5V382.5V377.5H515V382.5V385H512.5V382.5H510V380H507.5V375H505V380H502.5V382.5H500V380V377.5H497.5V380V382.5V385H495V382.5V380H492.5V382.5V385H487.5V382.5H485V380H482.5V377.5H480V385H475V382.5H472.5V380H470V382.5H467.5V385H462.5V382.5V380H460V382.5V385H455V382.5H452.5V380V377.5H450V380V382.5V385H447.5V377.5H445V382.5H442.5V380V377.5H440V380V382.5V385H435V382.5H432.5V380H430V385H427.5V382.5H425V380H422.5V377.5H420V385H417.5V382.5H415V380H412.5V382.5V385H410V382.5H407.5V380H405V385H402.5V382.5H397.5V377.5H395V382.5H392.5V385H387.5V382.5H385V385H380V382.5H377.5V385H375V380H372.5V385H370V382.5H367.5V385H360V380H357.5V385H350V382.5H347.5V380H345V382.5H340H337.5V385H332.5V382.5H330V385H327.5V377.5H325V385H320V380H317.5V385H315V382.5H310V377.5H307.5V382.5H305V385H302.5V382.5H300V380H297.5V382.5V385H292.5V382.5H290V380H287.5V382.5H285V385H282.5V382.5H280V385H275V382.5H272.5V385H267.5V382.5H265V385H260V380H257.5V385H250V382.5H247.5V385H242.5V382.5H240V385H0V500H750V387.5V385V382.5H742.5Z" fill="#0D0787"/>
<path d="M750 135H0V170H750V135Z" fill="#B1AAF2"/>
<path d="M750 170H0V262.5H750V170Z" fill="#B1AAF2"/>
<path d="M750 0H0V135H750V0Z" fill="#6256D7"/>
<path d="M750 0H0V77.5H750V0Z" fill="#0D0787"/>
<path d="M330 82.5H282.5V85H330V82.5Z" fill="#0D0787"/>
<path d="M282.5 80H217.5V82.5H282.5V80Z" fill="#0D0787"/>
<path d="M217.5 77.5H127.5V80H217.5V77.5Z" fill="#0D0787"/>
<path d="M0 40H260V42.5H117.5V45H87.5V47.5H0V40Z" fill="#6256D7"/>
<path d="M290 47.5H260V50H290V47.5Z" fill="#6256D7"/>
<path d="M237.5 67.5H130V70H237.5V67.5Z" fill="#6256D7"/>
<path d="M267.5 62.5H247.5V65H267.5V62.5Z" fill="#6256D7"/>
<path d="M315 55H285V57.5H315V55Z" fill="#6256D7"/>
<path d="M237.5 20H232.5V22.5H237.5V20Z" fill="#B1AAF2"/>
<path d="M270 42.5H232.5V45H270V42.5Z" fill="#6256D7"/>
<path d="M750 15H242.5V17.5H750V15Z" fill="#6256D7"/>
<path d="M0 122.65H147.5V120H185V117.5H270V115H172.5V117.5H132.5V120H0V122.65Z" fill="#B1AAF2"/>
<path d="M340 110H235V107.5H292.5V102.5H362.5V105H370V107.5H355V105H297.5V107.5H340V110Z" fill="#B1AAF2"/>
<path d="M430.1 135V130H285V127.5H217.5V125H180V127.5H195V130H230V132.5H270V135H430.1Z" fill="#B1AAF2"/>
<path d="M330 120H287.5V117.5H280V115H315V117.5H330V120Z" fill="#B1AAF2"/>
<path d="M405 150V152.5H267.5V155H182.5V157.5H67.5V155H160V152.5H220V150H330V147.5H385V150H405Z" fill="#B1AAF2"/>
<path d="M315 170V167.5H225V165H190V162.5H122.5V157.5H137.6V155H147.5V150H172.5H180V147.5H52.5V145H45V142.5H25V137.5H15V135H7.5V132.5H5V130H0V170H315Z" fill="#B1AAF2"/>
<path d="M347.5 160V162.5H252.5V160H295V157.5H327.5V160H337.5V157.5H340V160H347.5Z" fill="#B1AAF2"/>
<path d="M410 175H177.5V177.5H425V175H422.5V172.5H417.5V175H415V172.5H410V175Z" fill="#B1AAF2"/>
<path d="M0 217.1H67.5V212.5H155V215H197.5V220H212.5V225H337.5V227.5H347.5V230H390V232.5H367.5V235H340V237.5H295V242.5H270V245H207.5V247.5H185V245H172.5V242.5H122.5V240H55V237.5H35V235H25V232.5H17.5V230H2.5V227.5H0V217.1Z" fill="#150354"/>
<path d="M412.5 195H275V197.5H355V202.5H427.5V205H437.5V207.5H447.5V210H507.5H482.5V207.5H475V202.5H467.5V200H460V195H445V187.5H387.5V190H430V192.5H412.5V195Z" fill="#150354"/>
<path d="M750 262.5H187.4V260H120V257.5H100V255H80V252.5H37.5V250H42.5V247.5H47.5V245H15V247.5H10V250H5V252.5H0V262.5H187.5" fill="#150354"/>
<path d="M307.5 212.5V210H302.5V207.5H240V210H262.5V212.5H275V215H297.5V212.5H307.5Z" fill="#150354"/>
<path d="M269.6 262.5V257.5H282.5V252.5H290V250H322.5V255H335V257.5H380V260H412.5V262.5H269.6Z" fill="#B1AAF2"/>
<path d="M253.475 262.5V260H242.5V255H237.5V252.5H200V255H220V257.5H210V260H200V262.5H253.475Z" fill="#150354"/>
<path d="M265 235V237.5H190V235H182.5V232.5H162.5V230H197.5V235H265Z" fill="#B1AAF2"/>
<path d="M750 262.5H0V290H750V262.5Z" fill="#B1AAF2"/>
<path d="M565 290V287.5H480V285H410V282.5H350V280H270V282.5H330V285H382.5V287.5H287.5V290H565Z" fill="#6256D7"/>
<path d="M221.9 290V287.5H187.5V282.5H177.5V275H75V272.5H67.5V267.5H27.5V272.5H42.5V275H55V280H77.5V285H140V287.5H47.9V290H221.9Z" fill="#6256D7"/>
<path d="M142.5 232.5H87.5V235H72.5V237.5H55V240H122.5V242.5H172.5V245H185V247.5H207.5V245H270V242.5H185V240H182.5V237.5H172.5V235H142.5V232.5Z" fill="#B1AAF2"/>
<path d="M290 235H227.5V232.5H245V230H280V227.5H332.5V230H317.5V232.5H290V235Z" fill="#6256D7"/>
<path d="M750 290H0V325H750V290Z" fill="#6256D7"/>
<path d="M750 297.5V289.8H505V285H492.5V282.5H310V280H110V282.5H277.5V285H290V287.5H387.5V290H177.5V292.5H132.5V295H20V297.5H750Z" fill="#B1AAF2"/>
<path d="M420 320V325H155V322.5H160V317.5H165V315H173.6V310H177.5V305H180V302.5H192.5V300H195V297.5H217.5V295H225V290H250V287.5H265V285H270V287.5H282.5V290H292.5V292.5H297.5V295H322.5V297.5H330V300H365V302.5H370V305H382.5V307.5H385V310H402.5V312.5H405V315H407.5V320H420Z" fill="#B1AAF2"/>
<path d="M395 320V322.5H357.5V325H155V322.5H160V317.5H165V315H173.6V310H177.5V305H180V302.5H192.5V300H195V297.5H217.5V295H225V290H250V287.5H265V292.5H250V295H232.5V297.5H287.5V300H305V305H327.5V310H247.5V315H230V317.5H342.5V310H345V305H360V307.5H352.5V312.5H370V315H390V317.5H377.5V320H395Z" fill="#B1AAF2"/>
<path d="M625 320V325H350V320H355V317.5H357.5V315H360V312.5H367.5V310H377.5V307.5H387.5V302.5H397.5V297.5H402.5V295H410V285H417.5V282.5H430V280H432.5V275H435.05V272.5H456.95V270H462.5V267.5H485V270H492.5V272.5H522.5V275H525V277.5H540V280H542.5V282.5H547.5V287.5H550V290H562.5V292.3H580V295H582.5V298.45H595V300H602.5V305H605V307.5H610V315H617.5V317.5H620V320H625Z" fill="#B1AAF2"/>
<path d="M560 322.5V320H545V317.5H537.5V312.5H425V310H512.5V307.5H495V302.5H530V300H555V297.5H542.5V292.5H540V287.5H527.5V282.5H520V277.5H498.725V272.5H492.5V270H485V267.5H462.5V270H456.95V272.5H435.05V275H432.5V280H430V282.5H417.5V285H410V295H402.5V297.5H397.5V302.5H387.5V307.5H377.5V310H367.5V312.5H360V315H357.5V317.5H355V320H350V325H585V322.5H560Z" fill="#6256D7"/>
<path d="M135.35 212.5V210H92.5H100V207.5H77.5V205H72.5V202.5H62.5V200H90V197.5H107.5V195H122.5V192.5H127.5V190H145V187.5H42.5V185H30V180H20V177.5H0V212.5H135.35Z" fill="#150354"/>
<path d="M82.4 207.5H20V205H30V202.5H42.5V200H52.5V197.5H12.5V195H80V192.5H110V195H107.5V197.5H90.05V200H57.5V202.5H62.5V205H82.5L82.4 207.5Z" fill="#6256D7"/>
<path d="M130 237.5H85V235H105V232.5H137V235H130V237.5Z" fill="#150354"/>
<path d="M82.5 292.5V295H7.5V292.5H0V290H62.9V292.5H82.5Z" fill="#150354"/>
<path d="M232.5 272.5H195V275H212.5V277.5H235V275H232.5V272.5Z" fill="#150354"/>
<path d="M290 235H250V232.5H267.5V230H285V232.5H290V235Z" fill="#150354"/>
<path d="M750 325H0V355H750V325Z" fill="#B1AAF2"/>
<path d="M405 340H382.5V337.5H372.5V335H350V332.5H340V327.5H330V325H317.5V320H290V315H280V307.5H262.5V300H255.95V297.5H230V292.5H225V287.5H197.5V295H182.5V300H170V305H157.5V316.25H125V320H117.5V332.5H107.5V335H97.5V340H87.5V345H350H405H420V340H405Z" fill="#6256D7"/>
<path d="M395 77.5H347.5V80H395V77.5Z" fill="#0D0787"/>
<path d="M377.5 85H330V87.5H377.5V85Z" fill="#0D0787"/>
<path d="M395 82.5H347.5V85H395V82.5Z" fill="#0D0787"/>
<path d="M460 80H395V82.5H460V80Z" fill="#0D0787"/>
<path d="M550 82.5H460V85H550V82.5Z" fill="#0D0787"/>
<path d="M570 57.5H425V60H570V57.5Z" fill="#6256D7"/>
<path d="M347.5 50H335V52.5H347.5V50Z" fill="#6256D7"/>
<path d="M445 20H440V22.5H445V20Z" fill="#B1AAF2"/>
<path d="M427.5 50H422.5V52.5H427.5V50Z" fill="#B1AAF2"/>
<path d="M337.5 15H332.5V17.5H337.5V15Z" fill="#B1AAF2"/>
<path d="M377.5 35H340V37.5H377.5V35Z" fill="#6256D7"/>
<path d="M750 10H420V12.5H750V10Z" fill="#6256D7"/>
<path d="M717.5 12.5H387.5V15H717.5V12.5Z" fill="#6256D7"/>
<path d="M750 108.7H660V105H510V112.5H465V115H425V117.5H347.5V120H522.5V115H570V112.5H595V110H650V112.5H720V115H750V108.7Z" fill="#B1AAF2"/>
<path d="M497.5 105H380V102.5H422.5V100H485V95H525V97.5H492.5V100H502.5V102.5H497.5V105Z" fill="#B1AAF2"/>
<path d="M595 135V132.5H535V130H507.5V127.5H447.5V125H435V127.5H442.5V130H500V135H595Z" fill="#B1AAF2"/>
<path d="M750 148.2H647.5V150H585V147.5H710V150H547.5V152.5H497.5V155H730V157.5H467.5V160H737.5V162.5H375V165H410V167.5H710V170H750V148.2Z" fill="#B1AAF2"/>
<path d="M587.5 137.5H507.5V135H440V132.5H497.5V130H440V127.5H430V125H532.5V127.5H512.5V130H560V132.5H580V135H587.5V137.5Z" fill="#B1AAF2"/>
<path d="M605 150V147.5H512.5V145H465V147.5H495V150H577.5V147.5H617.5V150H605Z" fill="#B1AAF2"/>
<path d="M497.5 155H432.5V157.5H405V160H392.5V162.5H382.625V160H387.5V157.5H400V155H427.5V152.5H497.5V155Z" fill="#B1AAF2"/>
<path d="M502.5 165H440V167.5H502.5V165Z" fill="#B1AAF2"/>
<path d="M667.5 232.5V230H637.5V227.5H600V225H580V220H510V222.5H502.5V225H495V227.5H470V230H462.5V232.5H527.5V235H535V237.5H677.5V235H670V232.5H667.5Z" fill="#150354"/>
<path d="M570 237.5V240H552.5V242.5H540V245H422.5V247.5H337.5V250H525V252.5H552.5V257.5H595V260H500V262.5H750V250H712.5V245H690V240H607.5V237.5H570Z" fill="#B1AAF2"/>
<path d="M495 225H440V222.5H417.5V225H410V227.5H417.5V230H427.5V225H432.5V227.5H437.5V230H450V227.5H495V225Z" fill="#150354"/>
<path d="M452.5 210H450V207.5H447.5V205H437.5V202.5H427.5V205H437.5V207.5H447.5V210H452.5Z" fill="#6256D7"/>
<path d="M407.375 202.5V200H375V197.5H355V200H370V202.5H407.375Z" fill="#6256D7"/>
<path d="M442.5 410H160V412.5H442.5V410Z" fill="#6256D7"/>
<path d="M425 417.5H312.5V420H425V417.5Z" fill="#6256D7"/>
<path d="M505 420H392.5V422.5H505V420Z" fill="#6256D7"/>
<path d="M180 25V22.5H152.5V20H135V22.5H107.5V25H65V27.5H145H152.5H165H180H200V25H180Z" fill="#6256D7"/>
<path d="M182.5 102.5H85V100H100V97.5H127.5V95H167.5V97.5H180V100H182.5V102.5Z" fill="#B1AAF2"/>
<path d="M202.5 95H200V97.5H202.5V95Z" fill="#B1AAF2"/>
<path d="M202.5 90H200V92.5H202.5V90Z" fill="#B1AAF2"/>
<path d="M202.5 92.5V95H205V92.5H202.5Z" fill="#B1AAF2"/>
<path d="M205 92.5V95H210V92.5H205Z" fill="white"/>
<path d="M200 90H202.5V85H200V90Z" fill="white"/>
<path d="M192.5 92.5V95H197.5V92.5H192.5Z" fill="white"/>
<path d="M200 102.5H202.5V97.5H200V102.5Z" fill="white"/>
<path d="M197.5 92.5V95H200V92.5H197.5Z" fill="#B1AAF2"/>
<path d="M660 85H550V87.5H660V85Z" fill="#0D0787"/>
<path d="M610 80H550V82.5H610V80Z" fill="#0D0787"/>
<path d="M712.5 77.5H610V90H712.5V77.5Z" fill="#0D0787"/>
<path d="M672.5 87.5H562.5V90H672.5V87.5Z" fill="#0D0787"/>
<path d="M687.5 90H577.5V92.5H687.5V90Z" fill="#0D0787"/>
<path d="M702.5 92.5H592.5V95H702.5V92.5Z" fill="#0D0787"/>
<path d="M717.5 95H607.5V97.5H717.5V95Z" fill="#0D0787"/>
<path d="M620 60H475V62.5H620V60Z" fill="#6256D7"/>
<path d="M750 22.5H605V25H750V22.5Z" fill="#6256D7"/>
<path d="M727.5 22.5H582.5V25H727.5V22.5Z" fill="#6256D7"/>
<path d="M705 20H560V22.5H705V20Z" fill="#6256D7"/>
<path d="M585 27.5H497.5V30H585V27.5Z" fill="#6256D7"/>
<path d="M612.5 30H525V32.5H612.5V30Z" fill="#6256D7"/>
<path d="M700 82.5H647.5V85H700V82.5Z" fill="#0D0787"/>
<path d="M715 80H695V82.5H715V80Z" fill="#0D0787"/>
<path d="M725 77.5H712.5V80H725V77.5Z" fill="#0D0787"/>
<path d="M737.5 85H725V87.5H737.5V85Z" fill="#0D0787"/>
<path d="M737.5 82.5H732.5V85H737.5V82.5Z" fill="#0D0787"/>
<path d="M750 80H737.5V82.5H750V80Z" fill="#0D0787"/>
<path d="M750 90H687.5V97.5H750V90Z" fill="#0D0787"/>
<path d="M552.5 22.5H547.5V25H552.5V22.5Z" fill="#B1AAF2"/>
<path d="M682.5 12.5H677.5V15H682.5V12.5Z" fill="#B1AAF2"/>
<path d="M665 30H660V32.5H665V30Z" fill="#B1AAF2"/>
<path d="M125 17.5H120V20H125V17.5Z" fill="#B1AAF2"/>
<path d="M80 55H75V57.5H80V55Z" fill="#B1AAF2"/>
<path d="M745 40H700V42.5H745V40Z" fill="#6256D7"/>
<path d="M745 37.5H700V40H745V37.5Z" fill="#6256D7"/>
<path d="M735 35H690V37.5H735V35Z" fill="#6256D7"/>
<path d="M750 42.5H705V45H750V42.5Z" fill="#6256D7"/>
<path d="M687.5 30H670V32.5H687.5V30Z" fill="#6256D7"/>
<path d="M512.5 22.5H495V25H512.5V22.5Z" fill="#6256D7"/>
<path d="M467.5 30H465V32.5H467.5V30Z" fill="#150354"/>
<path d="M467.5 25H465V27.5H467.5V25Z" fill="#150354"/>
<path d="M465 25H467.5V20H465V25Z" fill="#6256D7"/>
<path d="M457.5 27.5V30H462.5V27.5H457.5Z" fill="#6256D7"/>
<path d="M465 37.5H467.5V32.5H465V37.5Z" fill="#6256D7"/>
<path d="M462.5 27.5V30H465V27.5H462.5Z" fill="#150354"/>
<path d="M467.5 27.5V30H470V27.5H467.5Z" fill="#150354"/>
<path d="M470 27.5V30H475V27.5H470Z" fill="#6256D7"/>
<path d="M675 75V82.5H672.5V87.5H670V90H667.5V92.5H662.5V95H655V97.5H645V95H637.5V92.5H632.5V90H630V87.5H627.5V85H625V80H622.5V67.5H625V60H627.5V55H630V52.5H632.5V50H635V47.5H640V45H645V42.5H650V40H655V37.5H625V40H620V42.5H615V45H610V47.5H607.5V50H605V52.5H602.5V55H600V60H597.5V65H595V72.5H592.5V95H595V102.5H597.492L597.5 107.5H600V110H602.596L602.5 112.5H605V115H607.5V117.5H610V120H612.5V122.5H617.5V125H625V127.5H642.5V125H650V122.5H655V120H657.5V117.5H660V115H662.5V112.5H667.5V110H670V105H672.5V100H675V95H677.5V75H675Z" fill="white"/>
<path d="M650 40H645V42.5H650V40Z" fill="#B1AAF2"/>
<path d="M645 42.5H640V45H645V42.5Z" fill="#B1AAF2"/>
<path d="M640 45H635V47.5H640V45Z" fill="#B1AAF2"/>
<path d="M635 47.5H632.5V50H635V47.5Z" fill="#B1AAF2"/>
<path d="M632.5 50H630V52.5H632.5V50Z" fill="#B1AAF2"/>
<path d="M630 52.5H627.5V55H630V52.5Z" fill="#B1AAF2"/>
<path d="M625 55H622.5V57.5H625V55Z" fill="#B1AAF2"/>
<path d="M627.5 50H625V52.5H627.5V50Z" fill="#B1AAF2"/>
<path d="M650 102.5H647.5V105H650V102.5Z" fill="#B1AAF2"/>
<path d="M617.5 57.5H615V60H617.5V57.5Z" fill="#B1AAF2"/>
<path d="M615 65H612.5V67.5H615V65Z" fill="#B1AAF2"/>
<path d="M620 72.5H617.5V77.5H620V72.5Z" fill="#B1AAF2"/>
<path d="M627.5 55H625V60H627.5V55Z" fill="#B1AAF2"/>
<path d="M625 60H622.5V67.5H625V60Z" fill="#B1AAF2"/>
<path d="M622.5 65H620V72.5H622.5V65Z" fill="#B1AAF2"/>
<path d="M642.5 102.5H637.5V105H642.5V102.5Z" fill="#B1AAF2"/>
<path d="M617.5 77.5H615V85H617.5V77.5Z" fill="#B1AAF2"/>
<path d="M610 67.5H607.5V75H610V67.5Z" fill="#B1AAF2"/>
<path d="M617.5 87.5H615V90H617.5V87.5Z" fill="#B1AAF2"/>
<path d="M622.5 75H620V80H622.5V75Z" fill="#B1AAF2"/>
<path d="M625 80H622.5V85H625V80Z" fill="#B1AAF2"/>
<path d="M620 80H617.5V82.5H620V80Z" fill="#B1AAF2"/>
<path d="M615 72.5H612.5V75H615V72.5Z" fill="#B1AAF2"/>
<path d="M612.5 77.5H610V80H612.5V77.5Z" fill="#B1AAF2"/>
<path d="M612.5 82.5H610V85H612.5V82.5Z" fill="#B1AAF2"/>
<path d="M610 87.5H607.5V90H610V87.5Z" fill="#B1AAF2"/>
<path d="M607.5 80H605V82.5H607.5V80Z" fill="#B1AAF2"/>
<path d="M612.5 92.5H610V95H612.5V92.5Z" fill="#B1AAF2"/>
<path d="M620 85H617.5V87.5H620V85Z" fill="#B1AAF2"/>
<path d="M627.5 97.5H625V100H627.5V97.5Z" fill="#B1AAF2"/>
<path d="M622.5 82.5H620V85H622.5V82.5Z" fill="#B1AAF2"/>
<path d="M620 95H617.5V97.5H620V95Z" fill="#B1AAF2"/>
<path d="M622.5 90H620V92.5H622.5V90Z" fill="#B1AAF2"/>
<path d="M627.5 90H625V92.5H627.5V90Z" fill="#B1AAF2"/>
<path d="M635 92.5H632.5V95H635V92.5Z" fill="#B1AAF2"/>
<path d="M637.5 95H635V97.5H637.5V95Z" fill="#B1AAF2"/>
<path d="M632.5 92.5H630V95H632.5V92.5Z" fill="#B1AAF2"/>
<path d="M645 97.5H640V100H645V97.5Z" fill="#B1AAF2"/>
<path d="M657.5 100H652.5V102.5H657.5V100Z" fill="#B1AAF2"/>
<path d="M625 85H622.5V87.5H625V85Z" fill="#B1AAF2"/>
<path d="M630 87.5H625V90H630V87.5Z" fill="#B1AAF2"/>
<path d="M635 100H630V102.5H635V100Z" fill="#B1AAF2"/>
<path d="M627.5 95H622.5V97.5H627.5V95Z" fill="#B1AAF2"/>
<path d="M620 62.5H617.5V70H620V62.5Z" fill="#B1AAF2"/>
<path d="M622.5 57.5H620V62.5H622.5V57.5Z" fill="#B1AAF2"/>
<path d="M600 57.5H597.5V60H600V57.5Z" fill="#B1AAF2"/>
<path d="M597.5 62.5H595V65H597.5V62.5Z" fill="#B1AAF2"/>
<path d="M595 70H592.5V72.5H595V70Z" fill="#B1AAF2"/>
<path d="M595 95H592.5V97.5H595V95Z" fill="#B1AAF2"/>
<path d="M597.5 102.5H595V105H597.5V102.5Z" fill="#B1AAF2"/>
<path d="M600 107.5H597.5V110H600V107.5Z" fill="#B1AAF2"/>
<path d="M602.5 110H600V112.5H602.5V110Z" fill="#B1AAF2"/>
<path d="M605 112.5H602.5V115H605V112.5Z" fill="#B1AAF2"/>
<path d="M607.5 115H605V117.5H607.5V115Z" fill="#B1AAF2"/>
<path d="M610 117.5H607.5V120H610V117.5Z" fill="#B1AAF2"/>
<path d="M612.5 120H610V122.5H612.5V120Z" fill="#B1AAF2"/>
<path d="M617.5 122.5H615V125H617.5V122.5Z" fill="#B1AAF2"/>
<path d="M625 125H622.5V127.5H625V125Z" fill="#B1AAF2"/>
<path d="M645 125H642.5V127.5H645V125Z" fill="#B1AAF2"/>
<path d="M652.5 122.5H650V125H652.5V122.5Z" fill="#B1AAF2"/>
<path d="M657.5 120H655V122.5H657.5V120Z" fill="#B1AAF2"/>
<path d="M660 117.5H657.5V120H660V117.5Z" fill="#B1AAF2"/>
<path d="M662.5 115H660V117.5H662.5V115Z" fill="#B1AAF2"/>
<path d="M665 112.5H662.5V115H665V112.5Z" fill="#B1AAF2"/>
<path d="M670 110H667.5V112.5H670V110Z" fill="#B1AAF2"/>
<path d="M672.5 105H670V107.5H672.5V105Z" fill="#B1AAF2"/>
<path d="M675 100H672.5V102.5H675V100Z" fill="#B1AAF2"/>
<path d="M677.5 95H675V97.5H677.5V95Z" fill="#B1AAF2"/>
<path d="M675 80H672.5V82.5H675V80Z" fill="#B1AAF2"/>
<path d="M672.5 85H670V87.5H672.5V85Z" fill="#B1AAF2"/>
<path d="M670 87.5H667.5V90H670V87.5Z" fill="#B1AAF2"/>
<path d="M667.5 90H665V92.5H667.5V90Z" fill="#B1AAF2"/>
<path d="M662.5 92.5H660V95H662.5V92.5Z" fill="#B1AAF2"/>
<path d="M655 95H652.5V97.5H655V95Z" fill="#B1AAF2"/>
<path d="M640 92.5H637.5V95H640V92.5Z" fill="#B1AAF2"/>
<path d="M635 90H632.5V92.5H635V90Z" fill="#B1AAF2"/>
<path d="M632.5 87.5H630V90H632.5V87.5Z" fill="#B1AAF2"/>
<path d="M630 85H627.5V87.5H630V85Z" fill="#B1AAF2"/>
<path d="M627.5 82.5H625V85H627.5V82.5Z" fill="#B1AAF2"/>
<path d="M627.5 60H625V62.5H627.5V60Z" fill="#B1AAF2"/>
<path d="M630 55H627.5V57.5H630V55Z" fill="#B1AAF2"/>
<path d="M632.5 52.5H630V55H632.5V52.5Z" fill="#B1AAF2"/>
<path d="M635 50H632.5V52.5H635V50Z" fill="#B1AAF2"/>
<path d="M637.5 47.5H635V50H637.5V47.5Z" fill="#B1AAF2"/>
<path d="M642.5 45H640V47.5H642.5V45Z" fill="#B1AAF2"/>
<path d="M647.5 42.5H645V45H647.5V42.5Z" fill="#B1AAF2"/>
<path d="M652.5 40H650V42.5H652.5V40Z" fill="#B1AAF2"/>
<path d="M625 37.5H622.5V40H625V37.5Z" fill="#B1AAF2"/>
<path d="M620 40H617.5V42.5H620V40Z" fill="#B1AAF2"/>
<path d="M615 42.5H612.5V45H615V42.5Z" fill="#B1AAF2"/>
<path d="M610 45H607.5V47.5H610V45Z" fill="#B1AAF2"/>
<path d="M607.5 47.5H605V50H607.5V47.5Z" fill="#B1AAF2"/>
<path d="M605 50H602.5V52.5H605V50Z" fill="#B1AAF2"/>
<path d="M602.5 52.5H600V55H602.5V52.5Z" fill="#B1AAF2"/>
<path d="M625 77.5H622.5V80H625V77.5Z" fill="#B1AAF2"/>
<path d="M625 67.5H622.5V70H625V67.5Z" fill="#B1AAF2"/>
<path d="M522.5 117.25H582.5V120H680V122.5H750V125.125H662.5V122.5H575V120H522.5V117.25Z" fill="#B1AAF2"/>
<path d="M728.3 135V132.5H650V130H642.5V127.5H605V130H620V132.5H630V135H728.3Z" fill="#B1AAF2"/>
<path d="M570 120H617.5V117.5H585V115H545V112.5H522.5V115H539.45V117.5H570V120Z" fill="#B1AAF2"/>
<path d="M750 191.6H547.5V190H640V187.5H677.5V185H710V182.5H725V187.5H732.5V190H750V191.6Z" fill="#B1AAF2"/>
<path d="M635 175V177.5H555V175H635Z" fill="#B1AAF2"/>
<path d="M653.975 230V227.5H677.5V225H685V222.5H722.5V220H727.5V217.5H732.5V215H750V240H732.5V237.5H725V235H720V232.5H700V230H653.975Z" fill="#150354"/>
<path d="M701.987 222.5V217.5H640V220H632.5V222.5H607.5V225H600V227.5H647.5V225H650V222.5H660V220H672.5V222.5H677.5V225H697.5V222.5H701.987Z" fill="#150354"/>
<path d="M689.6 217.5V215H672.5V212.5H632.5V210H595V212.5H577.5V215H555V217.5H542.5V220H576.95V217.5H590V215H612.5V217.5H625V220H690L689.6 217.5Z" fill="#150354"/>
<path d="M595 210H570V207.5H555V205H527.5V207.5H525V210H517.5V212.5H512.5V215H522.5V217.5H530V220H542.5V217.5H535V215H532.5V212.5H530V210H542.5V212.5H547.5V215H577.5V210H595Z" fill="#150354"/>
<path d="M692.5 270H580V267.5H510V270H480V272.5H620V275H687.5V280H710V282.5H695V285H675V287.5H610V290H750V277.5H735V275H722.5V272.5H692.5V270Z" fill="#6256D7"/>
<path d="M570 237.5V235H550V232.5H545V230H482.5V232.5H527.5V235H535V237.5H570Z" fill="#B1AAF2"/>
<path d="M535 210H570H572.5V212.5H577.5V215H555V212.5H550V210H535Z" fill="#6256D7"/>
<path d="M569.15 272.5V270H510V267.5H490V270H505V272.5H569.15Z" fill="#150354"/>
<path d="M590 257.5H552.5V254.9H575V252.5H620V255H590V257.5Z" fill="#150354"/>
<path d="M750 301.1H605V297.5H535V295H707.5V297.5H750V301.1Z" fill="#6256D7"/>
<path d="M0 422.5H407.5V427.5H630V432.5H702.5V440H750V500H0V422.5Z" fill="#150354"/>
<path d="M750 467.5H560V470H750V467.5Z" fill="#150354"/>
<path d="M740 470H550V472.5H740V470Z" fill="#150354"/>
<path d="M750 480H560V482.5H750V480Z" fill="#150354"/>
<path d="M732.5 482.5H542.5V485H732.5V482.5Z" fill="#150354"/>
<path d="M285 437.5H107.5V440H285V437.5Z" fill="#150354"/>
<path d="M745 440H17.5V442.5H745V440Z" fill="#150354"/>
<path d="M0 47.5H15V55H20V57.5H25V62.5H37.5V65H42.5V67.5H45V70H55V72.5H62.5V80H67.5V85H75V90V92.5H85V87.5H95V85H107.5V82.5H110V62.5H115V57.5H122.5V55H137.5V57.5H140V62.5H142.5V72.5H145V102.5H147.5V140H150V215H154.2V335H160V387.5H165V417.5H172.5V422.5H0V47.5Z" fill="#B1AAF2"/>
<path d="M50.45 301.3V360H47.5V372.5H50V397.5H52.5V412.5H55V422.5H35V375H37.5V340H40V320H42.5V310H45V305H47.5V301.3H50.45Z" fill="#6256D7"/>
<path d="M20 192.5V185H30V192.5H35V200H40V207.5H42.5V227.5H40V215H37.5V212.5H35V205H32.5V200H30V195H20V192.5Z" fill="#6256D7"/>
<path d="M8.65 47.5V112.5H12.5V120H17.5V192.5H25V210H22.5V227.5H15V260H10V320H20V335H25V354.875H20V360H12.5V422.5H0V47.5H8.65Z" fill="#6256D7"/>
<path d="M89.9 87.5V120H85V122.65H87.45V125H90V130H85V135H77.5V92.5H85V87.5H89.9Z" fill="#6256D7"/>
<path d="M110 82.5V95H103.4V110H100V130H97.5V137.5H92.5V155H90V160H87.5V137.5H85H82.5V135H92.5V127.5H95V87.5H97.5V92.5H100V105H102.5V90H105V85H107.5V82.5H110Z" fill="#6256D7"/>
<path d="M102.5 127.5V130H105H115V137.5H120V142.5H125V160H130V162.5H125V167.5H117.5V150H112.5V145H107.5V142.5H110V140H107.5V137.5H102.5V135H100V132.5H97.5V137.5H92.5V127.5H102.5Z" fill="#6256D7"/>
<path d="M110 162.5H107.5V157.775H102.5V155H96.25V157.5H95V170H90V172.5H87.5V175H85V235H88.7V220H92.5V195H97.5V192.5H105V172.5H100V165H107.5V167.5H110V207.5H115V215H120V222.5H122.5V235H125V212.5H120V207.5H117.5V202.5H112.5V157.5H110V162.5Z" fill="#6256D7"/>
<path d="M105 200H102.5V205H100V210H97.5V240H93.35V242.5H90V245H87.5V257.5H85V265H87.5V342.5H90V312.5H92.5V317.5H95V325.175H97.5V350H100V354.875H105V200Z" fill="#6256D7"/>
<path d="M110 230H112.5V240H117.5V245H120V340H122.5V347.5H127.5V420H112.5V355H120V345H110V320H115V245H110V235H107.5V215H110V230Z" fill="#6256D7"/>
<path d="M120 207.5V192.5H127.5V187.5H132.5V185H135V177.5H142.5V175H135V180H130V182.5H127.5V185H120V187.5H115V190H112.5V202.5H117.5V207.5H120Z" fill="#6256D7"/>
<path d="M25 57.5H20V55H17.5V82.5H25V90H22.5V92.5H20V97.5H15V105H25V102.5H27.5V97.5H30V62.5H25V57.5Z" fill="#6256D7"/>
<path d="M37.5 65V102.5H35V105H32.5V110H25V112.5H22.5V115H32.5V117.5H37.5V122.75H40V140H42.5V132.5H45V77.5H42.5V100H40V65H37.5Z" fill="#6256D7"/>
<path d="M32.5 130H25V185H30V162.5H32.5V165H37.5V190H42.5V227.5H40V232.5H30V237.5H25V272.5H32.5V280H37.5V285H40V267.5H32.5V262.5H30V242.5H32.5V237.5H40V232.5H45V225H50V200.075H52.5V190H50V182.5H45V175H42.5V165H40V157.5H35V150H30V132.5H37.5V130H40V122.5H37.5V130H35V122.5H32.5V130Z" fill="#6256D7"/>
<path d="M90 475H65V472.5H67.5V470H72.5V467.5H85V470H87.5V472.5H90V475Z" fill="#B1AAF2"/>
<path d="M280 457.5H202.5V460H280V457.5Z" fill="#6256D7"/>
<path d="M272.5 452.5H230V455H272.5V452.5Z" fill="#6256D7"/>
<path d="M100 450H30V452.5H100V450Z" fill="#B1AAF2"/>
<path d="M247.5 455H235V457.5H247.5V455Z" fill="#6256D7"/>
<path d="M295 452.5H282.5V455H295V452.5Z" fill="#6256D7"/>
<path d="M142.5 465H130V467.5H142.5V465Z" fill="#B1AAF2"/>
<path d="M100 475H72.5V477.5H100V475Z" fill="#B1AAF2"/>
<path d="M160 462.5H150V465H160V462.5Z" fill="#B1AAF2"/>
<path d="M160 455H155V457.5H160V455Z" fill="#B1AAF2"/>
<path d="M167.5 455H165V457.5H167.5V455Z" fill="#B1AAF2"/>
<path d="M112.5 450H107.5V452.5H112.5V450Z" fill="#B1AAF2"/>
<path d="M112.5 475H107.5V477.5H112.5V475Z" fill="#B1AAF2"/>
<path d="M310 427.5H267.5V430H310V427.5Z" fill="#6256D7"/>
<path d="M180 422.5H107.5V425H180V422.5Z" fill="#6256D7"/>
<path d="M62.5 422.5H27.5V425H62.5V422.5Z" fill="#6256D7"/>
<path d="M80 422.5H67.5V425H80V422.5Z" fill="#6256D7"/>
<path d="M97.5 422.5H87.5V425H97.5V422.5Z" fill="#6256D7"/>
<path d="M332.5 427.5H317.5V430H332.5V427.5Z" fill="#6256D7"/>
<path d="M317.5 425H310V427.5H317.5V425Z" fill="#6256D7"/>
<path d="M407.5 420H172.5V422.5H407.5V420Z" fill="#6256D7"/>
<path d="M310 427.5H260V422.5H270V410H275V400H280V390H305V400H307.5V405H315V410H320V412.5H325V425H310V427.5Z" fill="#B1AAF2"/>
<path d="M290 390V395H285V400H280V415H275V422.5H282.5V427.5H297.5V422.5H310V427.5H260V422.5H270V410H275V400H280V390H290Z" fill="#6256D7"/>
<path d="M280 415H277.5V417.5H280V415Z" fill="#6256D7"/>
<path d="M280 420H277.5V422.5H280V420Z" fill="#6256D7"/>
<path d="M282.5 417.5H280V420H282.5V417.5Z" fill="#6256D7"/>
<path d="M292.5 415H290V417.5H292.5V415Z" fill="#6256D7"/>
<path d="M285 415H282.5V417.5H285V415Z" fill="#6256D7"/>
<path d="M287.5 422.5H285V425H287.5V422.5Z" fill="#6256D7"/>
<path d="M290 425H287.5V427.5H290V425Z" fill="#6256D7"/>
<path d="M292.5 422.5H290V425H292.5V422.5Z" fill="#6256D7"/>
<path d="M290 417.5H287.5V420H290V417.5Z" fill="#6256D7"/>
<path d="M295 425H292.5V427.5H295V425Z" fill="#6256D7"/>
<path d="M297.5 422.5H295V425H297.5V422.5Z" fill="#6256D7"/>
<path d="M285 425H282.5V427.5H285V425Z" fill="#6256D7"/>
<path d="M282.5 412.5H280V415H282.5V412.5Z" fill="#6256D7"/>
<path d="M285 407.5H282.5V410H285V407.5Z" fill="#6256D7"/>
<path d="M282.5 402.5H280V405H282.5V402.5Z" fill="#6256D7"/>
<path d="M277.5 417.5H275V420H277.5V417.5Z" fill="#6256D7"/>
<path d="M277.5 420H275V422.5H277.5V420Z" fill="#6256D7"/>
<path d="M297.5 400H290V405H297.5V400Z" fill="#6256D7"/>
<path d="M302.5 400H297.5V402.5H302.5V400Z" fill="#6256D7"/>
<path d="M305 402.5H302.5V415H305V402.5Z" fill="#6256D7"/>
<path d="M305 390H302.5V397.5H305V390Z" fill="#B1AAF2"/>
<path d="M307.5 400H305V402.5H307.5V400Z" fill="#B1AAF2"/>
<path d="M315 405H310V407.5H315V405Z" fill="#B1AAF2"/>
<path d="M320 410H315V412.5H320V410Z" fill="#B1AAF2"/>
<path d="M325 412.5H320V415H325V412.5Z" fill="#B1AAF2"/>
<path d="M302.5 390H292.5V392.5H302.5V390Z" fill="#B1AAF2"/>
<path d="M407.5 425H352.5V427.5H407.5V425Z" fill="#6256D7"/>
<path d="M340 437.5H305V440H340V437.5Z" fill="#6256D7"/>
<path d="M360 437.5H345V440H360V437.5Z" fill="#6256D7"/>
<path d="M372.5 437.5H365V440H372.5V437.5Z" fill="#6256D7"/>
<path d="M540 467.5H532.5V470H540V467.5Z" fill="#6256D7"/>
<path d="M472.5 427.5H457.5V430H472.5V427.5Z" fill="#6256D7"/>
<path d="M447.5 427.5H440V430H447.5V427.5Z" fill="#6256D7"/>
<path d="M522.5 467.498H487.5V469.998H522.5V467.498Z" fill="#6256D7"/>
<path d="M402.5 437.498H397.5V439.998H402.5V437.498Z" fill="#6256D7"/>
<path d="M545 442.5H567.5V440H580V437.5H592.5V435H582.5V432.5H562.5V427.5H570V430H590V432.5H595V435H645V437.5H610V440H582.5V442.5H572.5V445H545" fill="#6256D7"/>
<path d="M545 452.5H500V450H545" fill="#6256D7"/>
<path d="M542.5 450H492.5V447.5H497.5V445H500V435H522.5V442.5H530V447.5H542.5V450Z" fill="#B1AAF2"/>
<path d="M522.5 435H502.5V437.5H522.5V435Z" fill="#B1AAF2"/>
<path d="M530 442.5H522.5V445H530V442.5Z" fill="#B1AAF2"/>
<path d="M542.5 447.5H535V450H542.5V447.5Z" fill="#B1AAF2"/>
<path d="M502.5 440H500V445H502.5V440Z" fill="#6256D7"/>
<path d="M500 445H497.5V450H500V445Z" fill="#6256D7"/>
<path d="M497.5 447.5H492.5V450H497.5V447.5Z" fill="#6256D7"/>
<path d="M505 445H502.5V447.5H505V445Z" fill="#6256D7"/>
<path d="M507.5 447.5H505V450H507.5V447.5Z" fill="#6256D7"/>
<path d="M502.5 447.5H500V450H502.5V447.5Z" fill="#6256D7"/>
<path d="M515 440H502.5V442.5H515V440Z" fill="#6256D7"/>
<path d="M750 350.9H650V345H660V342.5H665V340H672.5V335H680V312.5H695V307.5H697.5V302.5H705V297.5H710V290H725V282.5H730V280H750V350.9Z" fill="#6256D7"/>
<path d="M750 347.5V355H470V352.5H477.5V347.5H497.5V340H522.5V337.5H537.5V332.5H552.5V330H560V315H565V312.5H570V310H582.5V307.5H585V305H592.5V300H595V282.5H597.5V280H602.5V277.5H617.5V275H622.5V272.5H657.5V277.5H660V285H662.1V290H670V292.5H672.5V297.5H675V305H677.5V312.5H680V317.5H682.5V322.5H715V325H725V342.5H732.5V345H740V347.5H750Z" fill="#6256D7"/>
<path d="M75 285H72.5V357.5H75V285Z" fill="#B1AAF2"/>
<path d="M32.5 415H30V420H32.5V415Z" fill="#6256D7"/>
<path d="M42.5 290H40V292.5H42.5V290Z" fill="#B1AAF2"/>
<path d="M7.5 417.5H5V420H7.5V417.5Z" fill="#150354"/>
<path d="M15 415H10V417.5H15V415Z" fill="#150354"/>
<path d="M45 412.5H42.5V415H45V412.5Z" fill="#150354"/>
<path d="M50 415H47.5V417.5H50V415Z" fill="#150354"/>
<path d="M22.5 415H20V417.5H22.5V415Z" fill="#6256D7"/>
<path d="M20 412.5H17.5V415H20V412.5Z" fill="#6256D7"/>
<path d="M60 415H57.5V417.5H60V415Z" fill="#6256D7"/>
<path d="M37.5 297.5H35V302.5H37.5V297.5Z" fill="#6256D7"/>
<path d="M47.5 280H45V285H47.5V280Z" fill="#6256D7"/>
<path d="M27.5 407.5H25V410H27.5V407.5Z" fill="#6256D7"/>
<path d="M70 415V422.5H92.5V420H82.5V417.5H77.5V415H70Z" fill="#150354"/>
<path d="M100 415V422.5H122.5V420H112.5V417.5H107.5V415H100Z" fill="#150354"/>
<path d="M80 410H75V412.5H80V410Z" fill="#150354"/>
<path d="M85 412.5H82.5V415H85V412.5Z" fill="#150354"/>
<path d="M25 417.5H15V422.5H25V417.5Z" fill="#150354"/>
<path d="M40 420H35V422.5H40V420Z" fill="#150354"/>
<path d="M55 420H50V422.5H55V420Z" fill="#150354"/>
<path d="M55 417.5H52.5V420H55V417.5Z" fill="#150354"/>
<path d="M20 420H10V422.5H20V420Z" fill="#150354"/>
<path d="M75 417.5H62.5V420H75V417.5Z" fill="#6256D7"/>
<path d="M422.5 470H342.5V472.5H422.5V470Z" fill="#6256D7"/>
<path d="M477.5 467.5H397.5V470H477.5V467.5Z" fill="#6256D7"/>
<path d="M532.5 427.5H480V430H532.5V427.5Z" fill="#6256D7"/>
<path d="M72.5 245H70V280H72.5V245Z" fill="#B1AAF2"/>
<path d="M70 260H67.5V275H70V260Z" fill="#6256D7"/>
<path d="M75 247.5H72.5V267.5H75V247.5Z" fill="#B1AAF2"/>
<path d="M77.5 252.5H75V265H77.5V252.5Z" fill="#B1AAF2"/>
<path d="M70 252.5H67.5V260H70V252.5Z" fill="#B1AAF2"/>
<path d="M72.5 267.5H70V272.5H72.5V267.5Z" fill="#6256D7"/>
<path d="M72.5 277.5H70V280H72.5V277.5Z" fill="#6256D7"/>
<path d="M75 217.5H72.5V232.5H75V217.5Z" fill="#6256D7"/>
<path d="M130 397.5H125V400H130V397.5Z" fill="#B1AAF2"/>
<path d="M120 405H115V407.5H120V405Z" fill="#6256D7"/>
<path d="M122.5 395H120V397.5H122.5V395Z" fill="#6256D7"/>
<path d="M132.5 390H130V392.5H132.5V390Z" fill="#6256D7"/>
<path d="M20 375H12.5V377.5H20V375Z" fill="#6256D7"/>
<path d="M142.5 385H140V387.5H142.5V385Z" fill="#B1AAF2"/>
<path d="M45 380H42.5V382.5H45V380Z" fill="#B1AAF2"/>
<path d="M45 392.5H42.5V395H45V392.5Z" fill="#150354"/>
<path d="M182.5 377.5H180V380H182.5V377.5Z" fill="#150354"/>
<path d="M137.5 380H135V382.5H137.5V380Z" fill="#B1AAF2"/>
<path d="M182.5 387.5H180V390H182.5V387.5Z" fill="#6256D7"/>
<path d="M90 365H82.5V367.5H90V365Z" fill="#6256D7"/>
<path d="M90 370H87.5V385H90V370Z" fill="#6256D7"/>
<path d="M87.5 367.5H85V370H87.5V367.5Z" fill="#6256D7"/>
<path d="M87.5 375H85V377.5H87.5V375Z" fill="#6256D7"/>
<path d="M87.5 382.5H85V385H87.5V382.5Z" fill="#6256D7"/>
<path d="M87.5 390H85V392.5H87.5V390Z" fill="#6256D7"/>
<path d="M85 387.5H82.5V390H85V387.5Z" fill="#6256D7"/>
<path d="M85 380H82.5V382.5H85V380Z" fill="#6256D7"/>
<path d="M85 372.5H82.5V375H85V372.5Z" fill="#6256D7"/>
<path d="M92.5 390H90V405H92.5V390Z" fill="#B1AAF2"/>
<path d="M85 467.5H75V470H85V467.5Z" fill="#B1AAF2"/>
<path d="M87.5 470H82.5V472.5H87.5V470Z" fill="#B1AAF2"/>
<path d="M90 472.5H87.5V475H90V472.5Z" fill="#B1AAF2"/>
<path d="M70 472.5H65V475H70V472.5Z" fill="#6256D7"/>
<path d="M72.5 470H70V475H72.5V470Z" fill="#6256D7"/>
<path d="M75 467.5H72.5V470H75V467.5Z" fill="#6256D7"/>
<path d="M145 465H122.5V460H125V457.5H127.5V452.5H130V445H145V450H147.5V455H150V462.5H145V465Z" fill="#B1AAF2"/>
<path d="M135 445H130V465H135V445Z" fill="#6256D7"/>
<path d="M130 455H127.5V465H130V455Z" fill="#6256D7"/>
<path d="M127.5 457.5H125V465H127.5V457.5Z" fill="#6256D7"/>
<path d="M125 462.5H122.5V465H125V462.5Z" fill="#6256D7"/>
<path d="M137.5 445H135V447.5H137.5V445Z" fill="#6256D7"/>
<path d="M137.5 450H135V452.5H137.5V450Z" fill="#6256D7"/>
<path d="M140 447.5H137.5V450H140V447.5Z" fill="#6256D7"/>
<path d="M140 452.5H137.5V455H140V452.5Z" fill="#6256D7"/>
<path d="M140 457.5H137.5V460H140V457.5Z" fill="#6256D7"/>
<path d="M137.5 455H135V457.5H137.5V455Z" fill="#6256D7"/>
<path d="M137.5 460H135V462.5H137.5V460Z" fill="#6256D7"/>
<path d="M145 445H137.5V447.5H145V445Z" fill="#B1AAF2"/>
<path d="M147.5 450H145V452.5H147.5V450Z" fill="#B1AAF2"/>
<path d="M150 455H147.5V457.5H150V455Z" fill="#B1AAF2"/>
<path d="M112.5 450V447.5H20V450H95V452.5H55V455H37.5V457.5H12.5V460H102.5V457.5H60V455H100V452.5H107.5V450H112.5Z" fill="#6256D7"/>
<path d="M290 465V460H172.5V462.5H245V465H257.5C257.5 465 255 470 257.5 470C260 470 325 470 325 470V465H290Z" fill="#B1AAF2"/>
<path d="M417.5 487.5H10V490H417.5V487.5Z" fill="#150354"/>
<path d="M497.5 490H90V492.5H497.5V490Z" fill="#150354"/>
<path d="M460 480H432.5V482.5H460V480Z" fill="#150354"/>
<path d="M477.5 480H465V482.5H477.5V480Z" fill="#150354"/>
<path d="M492.5 480H485V482.5H492.5V480Z" fill="#150354"/>
<path d="M505 480H500V482.5H505V480Z" fill="#150354"/>
<path d="M337.5 430H262.5V432.5H337.5V430Z" fill="#B1AAF2"/>
<path d="M157.5 380H150V382.5H157.5V380Z" fill="#6256D7"/>
<path d="M22.5 219.313H27.5V227.5H25V232.5H22.5V237.5H17.5V252.5H20V255H22.5V260H25V265H20V257.5H17.5V252.5H15V227.5H22.5V219.313Z" fill="#6256D7"/>
<path d="M32.5 242.5V250H37.5V252.5H40V255H45V257.5H50V265H42.5V267.5H40V272.5H45V270H47.5V267.5H52.5V252.5H45V250H42.5V247.5H40V245H37.5V240H32.5V242.5Z" fill="#6256D7"/>
<path d="M82.5 117.5H75V120H82.5V117.5Z" fill="#150354"/>
<path d="M30 195H25V197.5H27.5V200H30V205H32.5V210H35V215H37.5V222.5H40V215H37.5V212.5H35V205H32.5V200H30V195Z" fill="#B1AAF2"/>
<path d="M32.5 162.5H30V167.5H32.5V175H35V167.5H37.5V165H32.5V162.5Z" fill="#B1AAF2"/>
<path d="M37.5 190V192.5H40V195H42.5V205H45V190H37.5Z" fill="#B1AAF2"/>
<path d="M45 70V132.5H50V190H52.5V315H55V422.5H70V390H72.5V377.5H75V370H77.5V365H90V387.5H92.5V405H95V422.5H105V400H102.5V382.5H97.5V352.5H95V347.5H92.5V342.5H87.5V265H85V155H82.5V97.5H77.5V92.5H75V85H67.5V80H62.5V72.5H55V70H45Z" fill="#150354"/>
<path d="M97.5 357.013H102.5V360H110V377.5H112.5V407.5H115V422.5H110.6V382.5H107.5V367.5H102.5V365H100V362.5H97.5V357.013Z" fill="#B1AAF2"/>
<path d="M52.5 270V301.3H47.5V305H45V310.075L42.5 310L42.2 320H40V340H37.5V375H35V422.5H25V382.5H27.5V377.5H30V365H32.5V340H35V332.5H37.5C37.5 330 37.5 312.5 37.5 312.5H40V305H42.5V300H45V292.5H47.5V275H49.625V270H52.5Z" fill="#B1AAF2"/>
<path d="M41.25 305V315H40V317.5H37.5V312.5H40V305H41.25Z" fill="#6256D7"/>
<path d="M75 370H72.5V372.5H67.5V375H65V380H57.5V370H55V382.5H57.5V385H65V382.5H67.5V377.5H70V375H75V370Z" fill="#6256D7"/>
<path d="M55 395V405H57.5V407.5H62.5V410H67.5V407.5H70V395H67.5V405H65V407.5H62.5V405H60V402.5H57.5V395H55Z" fill="#150354"/>
<path d="M90 367.5H92.5V382.5H95V385H97.5V387.5H102.5V390H95V387.5H92.5V385H90V367.5Z" fill="#6256D7"/>
<path d="M92.5 400H95V402.5H97.5V407.5H100V405H105V407.5H102.5V410H95V405H92.5V400Z" fill="#150354"/>
<path d="M37.5 342.5H35V365H37.5V342.5Z" fill="#B1AAF2"/>
<path d="M37.5 367.5H35V370H37.5V367.5Z" fill="#150354"/>
<path d="M32.5 382.5H30V407.5H32.5V382.5Z" fill="#150354"/>
<path d="M85 232.5V245H75V247.5H72.5V250H65V252.5H60V247.5H55V242.5H52.5V233.25H55V240.6H57.5V245H62.5V247.5H70V245H72.5V242.5H82.5V232.5H85Z" fill="#6256D7"/>
<path d="M59.638 72.5V82.5H62.5V87.5H65V90H72.5V95H75V102.5H80V112.5H82.5V97.5H77.5V92.5H75V85H67.5V80H62.5V72.5H59.638Z" fill="#6256D7"/>
<path d="M72.5 200V215H70V217.5H67.5V220H57.5V217.5H55V202.5H52.5V190H55V200H57.5V215H60V217.5H65V215H67.5V212.5H70V200H72.5Z" fill="#6256D7"/>
<path d="M70 170V172.5H62.5V157.5H60V152.5H52.5V147.488H50V155H57.5V160.2H60V175H62.5V185H65V177.5H67.5V175H70H72.5V170H70Z" fill="#6256D7"/>
<path d="M55 315H52.5V288.35H55V310H60V322.5H62.5V325H67.5V332.5H72.5V337.5H70V352.5H67.5V337.5H65V327.5H60V322.5H57.5V312.5H55V315Z" fill="#6256D7"/>
<path d="M82.5 125H75V127.5H72.5V130H65V132.5H62.5V125H60V122.5H50V120H45V122.5H50V125H57.5V130H62.5V137.5H65V132.5H72.5V130H75V127.5H82.5V125Z" fill="#6256D7"/>
<path d="M75 285V275H77.5V305H82.5V307.5H85V320H87.5V325H85V320H82.5V310H77.5V307.5H75V285Z" fill="#6256D7"/>
<path d="M45 95H52.5V100H57.5V102.5H65V105H70H72.5V110H70V105H60H55V102.5H47.5V100H45V95Z" fill="#6256D7"/>
<path d="M72.5 285H70V302.5H72.5V285Z" fill="#6256D7"/>
<path d="M72.5 307.5H70V312.5H72.5V307.5Z" fill="#6256D7"/>
<path d="M72.5 317.5H70V320H72.5V317.5Z" fill="#6256D7"/>
<path d="M67.5 242.5H65V260H67.5V242.5Z" fill="#B1AAF2"/>
<path d="M67.5 265H65V270H67.5V265Z" fill="#B1AAF2"/>
<path d="M67.5 275H65V277.5H67.5V275Z" fill="#B1AAF2"/>
<path d="M67.5 312.5H65V347.5H67.5V312.5Z" fill="#B1AAF2"/>
<path d="M65 92.5H62.5V122.5H65V92.5Z" fill="#6256D7"/>
<path d="M60 362.5H57.5V380H60V362.5Z" fill="#6256D7"/>
<path d="M25 282.5H20V285H17.5V310H15V315H22.5V320H25V322.5H27.5V330H30V347.5H27.5V350H25V354.875H27.575L27.5 350H32.5V330H30V317.5H25V315H30V307.5H20V292.5H25V285H27.5V267.5H15V263.525H12.5V270H20V267.5H25V282.5Z" fill="#6256D7"/>
<path d="M20 267.5H15V277.5H20V267.5Z" fill="#6256D7"/>
<path d="M17.5 277.5H12.5V287.5H17.5V277.5Z" fill="#6256D7"/>
<path d="M37.5 250H32.5V252.5H37.5V250Z" fill="#B1AAF2"/>
<path d="M40 252.5H35V255H40V252.5Z" fill="#B1AAF2"/>
<path d="M45 255H40V257.5H45V255Z" fill="#B1AAF2"/>
<path d="M50 257.5H45V260H50V257.5Z" fill="#B1AAF2"/>
<path d="M30 217.5H27.5V225H30V217.5Z" fill="#B1AAF2"/>
<path d="M32.5 220H30V227.5H32.5V220Z" fill="#B1AAF2"/>
<path d="M35 217.5H32.5V225H35V217.5Z" fill="#B1AAF2"/>
<path d="M30 117.5H22.5V120H30V117.5Z" fill="#B1AAF2"/>
<path d="M27.5 120H20V122.5H27.5V120Z" fill="#B1AAF2"/>
<path d="M30 122.5H22.5V125H30V122.5Z" fill="#B1AAF2"/>
<path d="M37.5 135H32.5V137.5H37.5V135Z" fill="#B1AAF2"/>
<path d="M40 137.5H35V140H40V137.5Z" fill="#B1AAF2"/>
<path d="M50 132.5H45V135H50V132.5Z" fill="#B1AAF2"/>
<path d="M50 137.5H47.5V150H50V137.5Z" fill="#B1AAF2"/>
<path d="M67.5 422.5H0V390H20V395H32.5V400H37.5V402.5H47.5V405H57.5V410H62.5V412.5H65V417.5H67.5V422.5Z" fill="#B1AAF2"/>
<path d="M47.5 405H20V407.5H17.5V410H7.5V412.5H0V410H5V407.5H17.5V405H20V402.5H47.5V405Z" fill="#150354"/>
<path d="M20 395V400H12.5V397.5H7.5V395H0V392.5H10V397.5H17.5V395H20Z" fill="#150354"/>
<path d="M67.5 420C65 420 38.15 420 38.15 420V417.5H30V415H20V413.431H30V415H35V417.5H45V415H60V417.5H62.5V418.75H67.5V420Z" fill="#150354"/>
<path d="M35 285H30V292.5H35V285Z" fill="#B1AAF2"/>
<path d="M35 287.5H32.5V295H35V287.5Z" fill="#B1AAF2"/>
<path d="M132.5 165H127.5V170H132.5V165Z" fill="#B1AAF2"/>
<path d="M132.5 167.5H130V172.5H132.5V167.5Z" fill="#B1AAF2"/>
<path d="M142.5 182.5H140V187.5H142.5V182.5Z" fill="#B1AAF2"/>
<path d="M172.5 427.5H115V430H172.5V427.5Z" fill="#150354"/>
<path d="M157.5 425H100V427.5H157.5V425Z" fill="#150354"/>
<path d="M107.5 427.5H70V430H107.5V427.5Z" fill="#150354"/>
<path d="M60 427.5H42.5V430H60V427.5Z" fill="#150354"/>
<path d="M105 140H95V145H105V140Z" fill="#B1AAF2"/>
<path d="M105 145H100V150H105V145Z" fill="#B1AAF2"/>
<path d="M112.5 145H107.5V147.5H112.5V145Z" fill="#B1AAF2"/>
<path d="M112.5 147.5H110V150H112.5V147.5Z" fill="#B1AAF2"/>
<path d="M75 155H72.5V232.5H75V155Z" fill="#6256D7"/>
<path d="M77.5 162.5H75V225H77.5V162.5Z" fill="#6256D7"/>
<path d="M105 192.5H97.5V195H105V192.5Z" fill="#B1AAF2"/>
<path d="M122.5 57.5H130V70H125V80H127.5V85H130V120H135V122.5H139.4V160H135V127.5H130V122.65H122.5V85H120V70H117.5V67.5H115V65H110V62.5H120V57.5H122.5Z" fill="#6256D7"/>
<path d="M117.5 67.5H112.5V77.5H117.5V67.5Z" fill="#B1AAF2"/>
<path d="M117.5 77.5H115V87.5H117.5V77.5Z" fill="#B1AAF2"/>
<path d="M100 195H92.5V200H100V195Z" fill="#B1AAF2"/>
<path d="M115 245H110V265H115V245Z" fill="#B1AAF2"/>
<path d="M95 317.5H92.5V322.5H95V317.5Z" fill="#B1AAF2"/>
<path d="M92.5 312.5H90V315H92.5V312.5Z" fill="#B1AAF2"/>
<path d="M97.5 325H95V335H97.5V325Z" fill="#B1AAF2"/>
<path d="M105 85H97.5V87.5H105V85Z" fill="#B1AAF2"/>
<path d="M140 57.5H137.5V72.5H140V57.5Z" fill="#B1AAF2"/>
<path d="M142.5 62.5H140V77.5H142.5V62.5Z" fill="#B1AAF2"/>
<path d="M125 95H115V120H125V95Z" fill="#6256D7"/>
<path d="M115 102.5H110V127.5H115V102.5Z" fill="#6256D7"/>
<path d="M132.5 255V272.5H137.5V280H140V312.5H145V320.425H148.175V327.5H150V335H155V360H157.5V367.5H160V375H155V365H150V337.5H147.5V330H142.5V320H137.5V315H132.5V275H127.5V267.5H122.5V242.5H127.5V250H130V255H132.5Z" fill="#6256D7"/>
<path d="M132.5 275H130V307.5H132.5V275Z" fill="#B1AAF2"/>
<path d="M130 275H127.5V285H130V275Z" fill="#B1AAF2"/>
<path d="M140 197.5H137.5V252.5H140V197.5Z" fill="#6256D7"/>
<path d="M137.5 205H135V245H137.5V205Z" fill="#6256D7"/>
<path d="M142.5 190H140V215H142.5V190Z" fill="#6256D7"/>
<path d="M145 190H142.5V197.5H145V190Z" fill="#6256D7"/>
<path d="M147.5 187.5H145V195H147.5V187.5Z" fill="#6256D7"/>
<path d="M150 182.5H147.5V190H150V182.5Z" fill="#6256D7"/>
<path d="M150 217.5H147.5V247.5H150V217.5Z" fill="#6256D7"/>
<path d="M142.5 330H140V345H142.5V330Z" fill="#6256D7"/>
<path d="M142.5 347.5H140V362.5H142.5V347.5Z" fill="#6256D7"/>
<path d="M145 360H142.5V382.5H145V360Z" fill="#6256D7"/>
<path d="M147.5 367.5H145V382.5H147.5V367.5Z" fill="#6256D7"/>
<path d="M150 380H147.5V395H150V380Z" fill="#6256D7"/>
<path d="M135 330H132.5V345H135V330Z" fill="#6256D7"/>
<path d="M140 332.5H135V347.5H140V332.5Z" fill="#6256D7"/>
<path d="M172.5 402.5V400H167.5V395H162.5V392.5H142.5V395H137.5V397.5H132.5V405H130V410H120V412.5H112.5V415H110V417.5H105V420H100V422.5H192.5V417.5H190V412.5H185V407.5H180V405H175V402.5H172.5Z" fill="#B1AAF2"/>
<path d="M132.5 405H147.5V407.5H150V410H170V412.5H175V415H177.5V417.5H185V420H187.5V422.5H190V417.5H187.5V415H180V412.5H177.5V410H172.5V407.5H152.5V405H150V402.5H140V400H137.5V397.5H132.5V405Z" fill="#150354"/>
<path d="M120 412.5H130V415H147.5V417.5H152.5V420H167.5V422.5H187.5V420H172.5V417.5H162.5V415H155V412.5H140V410H120V412.5Z" fill="#150354"/>
<path d="M220 457.5H182.5V452.5H185V400H187.5V370H195V367.5H212.5V382.5H217.5V390H220V425H222.5V427.5H227.5V432.5H230V455H220V457.5Z" fill="#B1AAF2"/>
<path d="M195 370V395H192.5V422.5H190V457.5H182.5V452.5H185V400H187.5V370H195Z" fill="#6256D7"/>
<path d="M202.5 390V392.5H207.5V402.5H210V425H212.5V457.5H214.55V422.5H212.5V395H207.5V390V377.5H205V390H202.5Z" fill="#6256D7"/>
<path d="M192.5 425H190V427.5H192.5V425Z" fill="#6256D7"/>
<path d="M192.5 430H190V432.5H192.5V430Z" fill="#6256D7"/>
<path d="M192.5 435H190V437.5H192.5V435Z" fill="#6256D7"/>
<path d="M192.5 440H190V442.5H192.5V440Z" fill="#6256D7"/>
<path d="M192.5 445H190V447.5H192.5V445Z" fill="#6256D7"/>
<path d="M192.5 447.5H190V455H192.5V447.5Z" fill="#6256D7"/>
<path d="M192.5 455H190V457.5H192.5V455Z" fill="#6256D7"/>
<path d="M195 452.5H192.5V455H195V452.5Z" fill="#6256D7"/>
<path d="M195 445H192.5V452.5H195V445Z" fill="#6256D7"/>
<path d="M195 442.5H192.5V445H195V442.5Z" fill="#6256D7"/>
<path d="M195 437.5H192.5V440H195V437.5Z" fill="#6256D7"/>
<path d="M195 432.5H192.5V435H195V432.5Z" fill="#6256D7"/>
<path d="M195 427.5H192.5V430H195V427.5Z" fill="#6256D7"/>
<path d="M195 422.5H192.5V425H195V422.5Z" fill="#6256D7"/>
<path d="M195 417.5H192.5V420H195V417.5Z" fill="#6256D7"/>
<path d="M195 412.5H192.5V415H195V412.5Z" fill="#6256D7"/>
<path d="M195 407.5H192.5V410H195V407.5Z" fill="#6256D7"/>
<path d="M195 402.5H192.5V405H195V402.5Z" fill="#6256D7"/>
<path d="M195 397.5H192.5V400H195V397.5Z" fill="#6256D7"/>
<path d="M197.5 400H195V402.5H197.5V400Z" fill="#6256D7"/>
<path d="M197.5 405H195V407.5H197.5V405Z" fill="#6256D7"/>
<path d="M197.5 410H195V412.5H197.5V410Z" fill="#6256D7"/>
<path d="M197.5 415H195V417.5H197.5V415Z" fill="#6256D7"/>
<path d="M197.5 420H195V422.5H197.5V420Z" fill="#6256D7"/>
<path d="M200 452.5H197.5V455H200V452.5Z" fill="#6256D7"/>
<path d="M200 447.5H197.5V450H200V447.5Z" fill="#6256D7"/>
<path d="M202.5 450H200V452.5H202.5V450Z" fill="#6256D7"/>
<path d="M207.5 445H205V447.5H207.5V445Z" fill="#6256D7"/>
<path d="M212.5 450H210V452.5H212.5V450Z" fill="#6256D7"/>
<path d="M202.5 442.5H200V445H202.5V442.5Z" fill="#6256D7"/>
<path d="M205 452.5H202.5V455H205V452.5Z" fill="#6256D7"/>
<path d="M202.5 455H200V457.5H202.5V455Z" fill="#6256D7"/>
<path d="M207.5 455H205V457.5H207.5V455Z" fill="#6256D7"/>
<path d="M197.5 425H195V427.5H197.5V425Z" fill="#6256D7"/>
<path d="M197.5 430H195V432.5H197.5V430Z" fill="#6256D7"/>
<path d="M197.5 435H195V437.5H197.5V435Z" fill="#6256D7"/>
<path d="M197.5 440H195V442.5H197.5V440Z" fill="#6256D7"/>
<path d="M197.5 445H195V447.5H197.5V445Z" fill="#6256D7"/>
<path d="M197.5 450H195V452.5H197.5V450Z" fill="#6256D7"/>
<path d="M197.5 455H195V457.5H197.5V455Z" fill="#6256D7"/>
<path d="M212.5 367.5H202.5V370H212.5V367.5Z" fill="#B1AAF2"/>
<path d="M217.5 382.5H212.5V385H217.5V382.5Z" fill="#B1AAF2"/>
<path d="M217.5 385H215V387.5H217.5V385Z" fill="#B1AAF2"/>
<path d="M222.5 425H220V427.5H222.5V425Z" fill="#B1AAF2"/>
<path d="M227.5 427.5H222.5V430H227.5V427.5Z" fill="#B1AAF2"/>
<path d="M227.475 435H230V432.5H227.475V435Z" fill="#B1AAF2"/>
<path d="M220 390H217.5V407.5H220V390Z" fill="#B1AAF2"/>
<path d="M137.5 315H135V317.5H137.5V315Z" fill="#B1AAF2"/>
<path d="M142.5 320H140V322.5H142.5V320Z" fill="#B1AAF2"/>
<path d="M430 267.5H407.5V270H312.5V267.5H280V270H262.5V272.5H240V275H392.5V272.5H415V270H445V267.5H460V265H472.5V262.5H440V265H430V267.5Z" fill="#6256D7"/>
<path d="M415 272.5H375V275H340V272.5H362.5V270H412.5V267.5H415V272.5Z" fill="#150354"/>
<path d="M522.5 325H402.5V327.5H522.5V325Z" fill="#150354"/>
<path d="M552.5 330H510V332.5H552.5V330Z" fill="#150354"/>
<path d="M480 330H450V332.5H480V330Z" fill="#150354"/>
<path d="M442.5 332.5H430V335H442.5V332.5Z" fill="white"/>
<path d="M467.5 327.5H462.5V330H467.5V327.5Z" fill="#150354"/>
<path d="M502.5 327.5H487.5V330H502.5V327.5Z" fill="#150354"/>
<path d="M560 327.5H557.5V330H560V327.5Z" fill="#150354"/>
<path d="M535 327.5H532.5V330H535V327.5Z" fill="#150354"/>
<path d="M385 337.5H382.5V340H385V337.5Z" fill="#150354"/>
<path d="M362.5 330H355V332.5H362.5V330Z" fill="#150354"/>
<path d="M382.5 325H352.5V327.5H382.5V325Z" fill="#6256D7"/>
<path d="M427.5 335H425V337.5H427.5V335Z" fill="#6256D7"/>
<path d="M427.5 330H425V332.5H427.5V330Z" fill="#6256D7"/>
<path d="M425 330H427.5V325H425V330Z" fill="#150354"/>
<path d="M417.5 332.5V335H422.5V332.5H417.5Z" fill="#150354"/>
<path d="M425 342.5H427.5V337.5H425V342.5Z" fill="#150354"/>
<path d="M422.5 332.5V335H425V332.5H422.5Z" fill="#6256D7"/>
<path d="M427.5 332.5V335H430V332.5H427.5Z" fill="#6256D7"/>
<path d="M430 332.5V335H435V332.5H430Z" fill="#150354"/>
<path d="M527.5 327.5H525V330H527.5V327.5Z" fill="#6256D7"/>
<path d="M527.5 322.5H525V325H527.5V322.5Z" fill="#6256D7"/>
<path d="M525 322.5H527.5V317.5H525V322.5Z" fill="white"/>
<path d="M517.5 325V327.5H522.5V325H517.5Z" fill="white"/>
<path d="M525 335H527.5V330H525V335Z" fill="white"/>
<path d="M522.5 325V327.5H525V325H522.5Z" fill="#6256D7"/>
<path d="M527.5 325V327.5H530V325H527.5Z" fill="#6256D7"/>
<path d="M530 325V327.5H535V325H530Z" fill="white"/>
<path d="M417.5 427.5H415V430H417.5V427.5Z" fill="#150354"/>
<path d="M417.5 422.5H415V425H417.5V422.5Z" fill="#150354"/>
<path d="M415 422.5H417.5V417.5H415V422.5Z" fill="#150354"/>
<path d="M407.5 425V427.5H412.5V425H407.5Z" fill="#150354"/>
<path d="M415 435H417.5V430H415V435Z" fill="#150354"/>
<path d="M412.5 425V427.5H415V425H412.5Z" fill="#150354"/>
<path d="M417.5 425V427.5H420V425H417.5Z" fill="#150354"/>
<path d="M420 425V427.5H425V425H420Z" fill="#150354"/>
<path d="M740 422.5H537.5V425H740V422.5Z" fill="#6256D7"/>
<path d="M550 425H437.5V427.5H550V425Z" fill="#6256D7"/>
<path d="M687.5 425H625V427.5H687.5V425Z" fill="#B1AAF2"/>
<path d="M492.5 447.5H475V450H492.5V447.5Z" fill="#150354"/>
<path d="M467.5 447.5H450V450H467.5V447.5Z" fill="#150354"/>
<path d="M432.5 447.5H425V450H432.5V447.5Z" fill="#150354"/>
<path d="M500 450H437.5V452.5H500V450Z" fill="#150354"/>
<path d="M552.5 455H490V457.5H552.5V455Z" fill="#B1AAF2"/>
<path d="M220 472.5H147.5V475H220V472.5Z" fill="#150354"/>
<path d="M600 487.5H595V490H600V487.5Z" fill="#150354"/>
<path d="M680 490.025H602.5V492.5H680V490.025Z" fill="#150354"/>
<path d="M700 330V335H537.5V332.5H552.5V330H560V315H565V312.5H570V310H582.5V307.5H585V305H592.5V300H595V282.5H597.5V280H602.5V277.5H617.5V275H622.5V272.5H657.5V277.5H635V282.5H627.5V287.5H640V292.5H642.5V307.5H647.5V302.5H650V297.5H652.5V320H642.5V322.5H610V325H585V327.5H572.5V330H665V312.5H670V305H672.5V317.5H675.575V322.5H680V327.5H685V330H700Z" fill="#0D0787"/>
<path d="M662.5 337.5H522.5V340H662.5V337.5Z" fill="#0D0787"/>
<path d="M637.5 335.025H537.5V337.5H637.5V335.025Z" fill="#0D0787"/>
<path d="M595 340.025H495V342.5H595V340.025Z" fill="#0D0787"/>
<path d="M655 325H640V327.5H655V325Z" fill="#0D0787"/>
<path d="M655 282.5H645V285H655V282.5Z" fill="#0D0787"/>
<path d="M660 285H650V287.5H660V285Z" fill="#0D0787"/>
<path d="M670 290H645V292.5H670V290Z" fill="#0D0787"/>
<path d="M675 297.5H657.5V300H675V297.5Z" fill="#0D0787"/>
<path d="M687.5 342.5H487.5V347.5H687.5V342.5Z" fill="#0D0787"/>
<path d="M712.5 345H690V347.5H712.5V345Z" fill="#0D0787"/>
<path d="M467.5 345H292.5V350H467.5V345Z" fill="#0D0787"/>
<path d="M207.5 287.5V300H225V302.5H232.5V307.5H250V310H187.5V315H254.9V320H260V322.5H270V320H277.5V322.5H285V325H302.5V330H317.5V332.5H165V335H205V337.5H220V340H272.5V342.5H317.5V345H160V335H154.2V316.25H157.5V305H170V300H182.5V295H197.5V287.5H207.5Z" fill="#0D0787"/>
<path d="M330 335H287.5V337.5H330V335Z" fill="#0D0787"/>
<path d="M260 335H217.5V337.5H260V335Z" fill="#0D0787"/>
<path d="M280 335H270V337.5H280V335Z" fill="#0D0787"/>
<path d="M260 345H160V350H260V345Z" fill="#0D0787"/>
<path d="M282.5 347.5H242.5V350H282.5V347.5Z" fill="#0D0787"/>
<path d="M225 292.5H205V295H225V292.5Z" fill="#0D0787"/>
<path d="M410 350H260V355H410V350Z" fill="#0D0787"/>
<path d="M235 350H160V355H235V350Z" fill="#0D0787"/>
<path d="M485 345H472.5V347.5H485V345Z" fill="#0D0787"/>
<path d="M510 347.5H497.5V350H510V347.5Z" fill="#0D0787"/>
<path d="M742.5 280V282.5H730V290H725V292.5H717.5V295H715V297.5H710V300H724.4V302.5H707.5V305H697.5V317.5H690V322.5H717.5V325H735V327.5H742.5V337.5H750V342.5H669.35V340H722.5V335H712.5V332.5H705V330H680V312.5H695V307.5H697.5V302.5H705V297.5H710V290H725V282.5H729.95V280H742.5Z" fill="#0D0787"/>
<path d="M740 302.5V310H710V312.5H702.5V315H700V307.5H710V305H732.5V297.5H725V295H737.5V287.5H740V285H745V322.5H742.5V302.5H740Z" fill="#0D0787"/>
<path d="M735 312.5H692.5V322.5H735V312.5Z" fill="#0D0787"/>
<path d="M205 340H175V342.5H205V340Z" fill="#6256D7"/>
<path d="M505 322.5H395V325H505V322.5Z" fill="#6256D7"/>
<path d="M562.5 305H547.5V307.5H562.5V305Z" fill="#B1AAF2"/>
<path d="M582.5 305H567.5V307.5H582.5V305Z" fill="#B1AAF2"/>
<path d="M572.5 302.5H557.5V305H572.5V302.5Z" fill="#B1AAF2"/>
<path d="M560 307.5H537.5V310H560V307.5Z" fill="#B1AAF2"/>
<path d="M497.5 305H482.5V307.5H497.5V305Z" fill="#B1AAF2"/>
<path d="M750 332.5V352.5H687.5V350.9H667.5V347.5H617.5V350H596.325V352.5H565V355H540V352.5H527.5V355H486.35V360H447.5V365H160V347.5H165V345H160V340H162.5V337.5H167.5V335H177.5V337.5H192.5V340H200V342.5H205V345H210V347.5H215V345H220V342.375H222.5V340H230V337.5H240V340H242.5V342.7H250.225V345H255V347.5H265V345H267.5V342.5H272.5V340H277.5V337.5H284.85V340H287.5V342.5H292.5V345H297.5V347.5H300V350H352.5V345H357.5V347.5H362.5V350H370V345H375V342.5H382.5V340H390V337.5H400.025V340H407.5V342.5H422.5V345H430V347.5H470V350H485V345H495V342.5H504.35V345H512.5V347.5H517.5V345H535V347.5H545V345H560V342.5H570.05V340H598.175V337.5H610V335H632.5V337.5H640V340H675V342.5H700V345H715V342.5H722.5V340H727.5V335H740V332.5H750Z" fill="#6256D7"/>
<path d="M400 365V357.5H350V355H312.5V352.5H292.5V357.5H287.5V360H255V357.5H252.5V355H245.038V352.5H237.5V355H227.5V357.5H212.5V360H160V365H400Z" fill="#6256D7"/>
<path d="M422.5 362.5H380V365H422.5V362.5Z" fill="#6256D7"/>
<path d="M407.5 360H380V362.5H407.5V360Z" fill="#6256D7"/>
<path d="M335 395H332.5V397.5H335V395Z" fill="#B1AAF2"/>
<path d="M252.5 392.5H247.5V397.5H252.5V392.5Z" fill="#B1AAF2"/>
<path d="M357.5 395H355V397.5H357.5V395Z" fill="#B1AAF2"/>
<path d="M260 417.5H220V420H260V417.5Z" fill="#6256D7"/>
<path d="M442.5 415H405V417.5H442.5V415Z" fill="#6256D7"/>
<path d="M420 385H417.5V387.5H420V385Z" fill="#6256D7"/>
<path d="M435 385H432.5V387.5H435V385Z" fill="#6256D7"/>
<path d="M462.5 390H460V392.5H462.5V390Z" fill="#6256D7"/>
<path d="M482.5 385H480V387.5H482.5V385Z" fill="#6256D7"/>
<path d="M477.5 385H472.5V387.5H477.5V385Z" fill="#6256D7"/>
<path d="M440 382.5H437.5V390H440V382.5Z" fill="#6256D7"/>
<path d="M425 382.5H422.5V387.5H425V382.5Z" fill="#6256D7"/>
<path d="M430 385H427.5V392.5H430V385Z" fill="#6256D7"/>
<path d="M465 382.5H462.5V390H465V382.5Z" fill="#6256D7"/>
<path d="M485 387.5H482.5V390H485V387.5Z" fill="#6256D7"/>
<path d="M415 387.5H412.5V390H415V387.5Z" fill="#6256D7"/>
<path d="M277.5 380H275V382.5H277.5V380Z" fill="#0D0787"/>
<path d="M262.5 385H260V387.5H262.5V385Z" fill="#6256D7"/>
<path d="M252.5 385H250V387.5H252.5V385Z" fill="#6256D7"/>
<path d="M247.5 385H245V387.5H247.5V385Z" fill="#6256D7"/>
<path d="M402.5 385H400V390H402.5V385Z" fill="#6256D7"/>
<path d="M395 385H392.5V387.5H395V385Z" fill="#6256D7"/>
<path d="M392.5 387.5H387.5V390H392.5V387.5Z" fill="#6256D7"/>
<path d="M352.5 385H347.5V387.5H352.5V385Z" fill="#6256D7"/>
<path d="M80 365H77.5V370H80V365Z" fill="#6256D7"/>
<path d="M72.5 390H70V415H72.5V390Z" fill="#6256D7"/>
<path d="M80 395H77.5V417.5H80V395Z" fill="#6256D7"/>
<path d="M80 370H75V387.5H80V370Z" fill="#6256D7"/>
<path d="M77.5 377.5H72.5V395H77.5V377.5Z" fill="#6256D7"/>
<path d="M77.5 385H75V402.5H77.5V385Z" fill="#6256D7"/>
<path d="M145 180H137.5V185H145V180Z" fill="#B1AAF2"/>
<path d="M147.5 102.5H145V142.5H147.5V102.5Z" fill="#B1AAF2"/>
<path d="M150 147.5H147.5V175H150V147.5Z" fill="#B1AAF2"/>
<path d="M147.5 225H145V302.5H147.5V225Z" fill="#B1AAF2"/>
<path d="M627.5 292.5H602.5V295H627.5V292.5Z" fill="#6256D7"/>
<path d="M627.5 295H620V297.5H627.5V295Z" fill="#6256D7"/>
<path d="M627.5 297.5H625V320H627.5V297.5Z" fill="#6256D7"/>
<path d="M627.5 317.5H620V322.5H627.5V317.5Z" fill="#6256D7"/>
<path d="M627.5 320H615V322.5H627.5V320Z" fill="#6256D7"/>
<path d="M315 465H310V467.5H315V465Z" fill="white"/>
<path d="M337.5 465H332.5V467.5H337.5V465Z" fill="white"/>
<path d="M340 465H337.5V467.5H340V465Z" fill="#B1AAF2"/>
<path d="M325 450H322.5V452.5H325V450Z" fill="#B1AAF2"/>
<path d="M325 480H322.5V482.5H325V480Z" fill="#B1AAF2"/>
<path d="M310 465H307.5V467.5H310V465Z" fill="#B1AAF2"/>
<path d="M325 477.5H322.5V480H325V477.5Z" fill="#B1AAF2"/>
<path d="M325 452.5H322.5V457.5H325V452.5Z" fill="white"/>
<path d="M325 475H322.5V480H325V475Z" fill="white"/>
<path d="M320 462.5H315V465H320V462.5Z" fill="#B1AAF2"/>
<path d="M320 467.5H315V470H320V467.5Z" fill="#B1AAF2"/>
<path d="M332.5 462.5H327.5V465H332.5V462.5Z" fill="#B1AAF2"/>
<path d="M332.5 467.5H327.5V470H332.5V467.5Z" fill="#B1AAF2"/>
<path d="M322.5 457.5H320V462.5H322.5V457.5Z" fill="#B1AAF2"/>
<path d="M322.5 470H320V475H322.5V470Z" fill="#B1AAF2"/>
<path d="M327.5 457.5H325V462.5H327.5V457.5Z" fill="#B1AAF2"/>
<path d="M332.5 465V467.5H327.5V470H325V475H322.5V470H320V467.5H315V465H320V462.5H322.5V457.5H325V462.5H327.5V465H332.5Z" fill="#6256D7"/>
<path d="M327.5 470H325V475H327.5V470Z" fill="#B1AAF2"/>
<path d="M322.5 462.5H320V465H322.5V462.5Z" fill="#150354"/>
<path d="M327.5 462.5H325V465H327.5V462.5Z" fill="#150354"/>
<path d="M327.5 467.5H325V470H327.5V467.5Z" fill="#150354"/>
<path d="M322.5 467.5H320V470H322.5V467.5Z" fill="#150354"/>
</g>
<defs>
<clipPath id="clip0_0_1">
<rect width="750" height="500" fill="white"/>
</clipPath>
</defs>
</svg>
